<svg width="224" height="21" viewBox="0 0 224 21" fill="none" xmlns="http://www.w3.org/2000/svg">
<g clip-path="url(#clip0_4_549)">
<path d="M15.6972 10.7197H210.958" stroke="#A08479" stroke-width="6" stroke-miterlimit="10"/>
<path d="M205.126 2.71484L224 10.7074L205.126 18.7205V2.71484Z" fill="#574648"/>
<path d="M197.598 2.71484L216.472 10.7074L197.598 18.7205V2.71484Z" fill="#574648"/>
<path d="M189.768 2.71484L208.642 10.7074L189.768 18.7205V2.71484Z" fill="#574648"/>
<path d="M188.161 7.55999L184.994 10.7058L188.162 13.8505L191.329 10.7047L188.161 7.55999Z" fill="#450078"/>
<path d="M183.662 7.58094L180.495 10.7262L183.662 13.8715L186.83 10.7262L183.662 7.58094Z" fill="#97BBEF"/>
<path d="M179.128 7.55841L175.961 10.7042L179.129 13.8489L182.296 10.7031L179.128 7.55841Z" fill="#450078"/>
<path d="M47.5496 7.57715L44.382 10.7224L47.5496 13.8677L50.7171 10.7224L47.5496 7.57715Z" fill="#450078"/>
<path d="M43.0321 7.57776L39.8645 10.723L43.0321 13.8683L46.1996 10.723L43.0321 7.57776Z" fill="#97BBEF"/>
<path d="M38.5146 7.57434L35.3471 10.7196L38.5146 13.8649L41.6821 10.7196L38.5146 7.57434Z" fill="#450078"/>
<path d="M14.357 21C19.9244 19.2832 26.6914 20.6304 29.7977 19.0778C32.7924 17.5787 37.0486 10.999 37.3547 10.5144C37.4209 10.5144 37.4664 10.5144 37.4664 10.5144C37.4664 10.5144 32.9951 3.47467 29.8887 1.92216C26.7824 0.369646 20.0154 1.7168 14.448 0C14.8782 0.677684 17.2938 2.53002 18.5553 2.93663C17.178 2.57109 10.5268 0.903579 7.22194 0.870722C11.0521 2.69842 12.8555 5.29004 12.8555 5.29004C12.8555 5.29004 4.87253 2.73949 0.0909969 3.99218C5.62947 6.15666 5.50952 7.94739 8.14019 9.24526C9.30248 9.81615 12.9217 10.2351 16.9298 10.4979C12.8886 10.7608 9.21976 11.1797 8.05333 11.7547C5.42266 13.0526 5.54261 14.8433 0.00413513 17.0078C4.78567 18.2646 12.7687 15.7141 12.7687 15.7141C12.7687 15.7141 10.9653 18.3057 7.13507 20.1334C10.44 20.1005 17.0911 18.433 18.4685 18.0675C17.2069 18.4741 14.7913 20.3223 14.3611 21H14.357Z" fill="#574648"/>
</g>
<defs>
<clipPath id="clip0_4_549">
<rect width="224" height="21" fill="white"/>
</clipPath>
</defs>
</svg>
