<svg width="455" height="22" viewBox="0 0 455 22" fill="none" xmlns="http://www.w3.org/2000/svg">
<g clip-path="url(#clip0_18_6062)">
<path d="M18.44 10.72C18.44 10.72 13.88 7.63004 14.71 4.29004C14.71 4.29004 12.56 6.23004 14.16 8.24004C15.57 10.01 13.05 6.27004 10.17 10.72C13.05 15.17 15.31 11.25 14.16 13.2C12.72 15.64 14.71 17.15 14.71 17.15C14.44 13.22 18.44 10.72 18.44 10.72Z" fill="#036AF5"/>
<path d="M14.68 8.75998C14.68 8.75998 11.26 2.27998 5.82 7.28998C1.39 11.35 0 10.88 0 10.88C0 10.88 2.06 10.82 5.74 14.34C11.09 19.45 14.53 12.52 14.53 12.52L14.68 8.76998V8.75998Z" fill="#036AF5"/>
<path d="M24.95 0C25.44 0 25.94 0.08 26.44 0.25C28.15 0.85 29.06 2.73 28.45 4.44C28.23 5.06 27.79 5.55 27.2 5.83C26.61 6.11 25.95 6.15 25.33 5.93C24.86 5.77 24.49 5.43 24.28 4.99C24.07 4.54 24.04 4.04 24.2 3.58C24.29 3.34 24.55 3.21 24.8 3.29C25.04 3.38 25.17 3.64 25.09 3.89C25.01 4.12 25.02 4.37 25.13 4.59C25.24 4.81 25.42 4.97 25.65 5.05C26.03 5.18 26.44 5.16 26.8 4.99C27.16 4.82 27.43 4.51 27.57 4.13C28 2.91 27.35 1.56 26.13 1.13C24.28 0.48 22.24 1.46 21.59 3.31C21.12 4.65 21.2 6.08 21.81 7.36C22.42 8.64 23.5 9.59 24.83 10.06C25.07 10.15 25.2 10.41 25.12 10.66C25.03 10.9 24.77 11.03 24.52 10.95C22.95 10.4 21.69 9.27 20.96 7.77C20.24 6.27 20.15 4.58 20.7 3.01C21.35 1.16 23.09 0 24.95 0Z" fill="#036AF5"/>
<path d="M24.39 10.05C24.58 10.05 24.76 10.17 24.83 10.36C24.92 10.6 24.79 10.87 24.54 10.96C21.78 11.93 20.33 14.96 21.3 17.71C21.95 19.56 23.99 20.54 25.84 19.89C27.06 19.46 27.71 18.12 27.28 16.89C27.15 16.51 26.87 16.21 26.51 16.03C26.15 15.86 25.74 15.83 25.36 15.97C25.13 16.05 24.95 16.22 24.84 16.43C24.73 16.65 24.72 16.9 24.8 17.13C24.89 17.37 24.76 17.64 24.51 17.73C24.27 17.82 24 17.69 23.91 17.44C23.75 16.97 23.77 16.47 23.99 16.03C24.2 15.58 24.58 15.25 25.04 15.09C25.66 14.87 26.32 14.91 26.91 15.19C27.5 15.47 27.94 15.97 28.16 16.58C28.76 18.29 27.86 20.17 26.15 20.77C23.81 21.59 21.23 20.35 20.41 18.01C19.27 14.77 20.98 11.2 24.23 10.06C24.28 10.04 24.33 10.03 24.39 10.03V10.05Z" fill="#036AF5"/>
<path d="M16.53 10.52C16.53 8.90998 17.84 7.59998 19.45 7.59998C21.06 7.59998 22.37 8.90998 22.37 10.52C22.37 12.13 21.06 13.44 19.45 13.44C17.84 13.44 16.53 12.13 16.53 10.52Z" fill="#036AF5"/>
<path d="M436.41 10.31C436.41 10.31 440.97 13.4 440.14 16.74C440.14 16.74 442.29 14.8 440.69 12.79C439.28 11.02 441.8 14.76 444.69 10.31C441.81 5.86001 439.55 9.78 440.69 7.83C442.13 5.39 440.14 3.88 440.14 3.88C440.41 7.81 436.41 10.31 436.41 10.31Z" fill="#036AF5"/>
<path d="M440.17 12.27C440.17 12.27 443.59 18.75 449.03 13.74C453.45 9.66997 454.85 10.15 454.85 10.15C454.85 10.15 452.79 10.21 449.11 6.68997C443.76 1.58997 440.32 8.50997 440.32 8.50997L440.17 12.26V12.27Z" fill="#036AF5"/>
<path d="M430.27 10.05C430.32 10.05 430.37 10.05 430.43 10.08C432 10.63 433.26 11.76 433.99 13.26C434.71 14.76 434.8 16.45 434.25 18.02C433.43 20.36 430.85 21.6 428.51 20.78C426.8 20.18 425.89 18.3 426.5 16.59C426.72 15.97 427.16 15.48 427.75 15.2C428.34 14.92 429 14.88 429.62 15.1C430.09 15.26 430.46 15.6 430.67 16.04C430.88 16.49 430.91 16.99 430.75 17.45C430.66 17.69 430.4 17.82 430.15 17.74C429.91 17.65 429.78 17.39 429.86 17.14C429.94 16.91 429.93 16.66 429.82 16.44C429.72 16.22 429.53 16.06 429.3 15.98C428.52 15.71 427.66 16.12 427.38 16.9C426.95 18.12 427.6 19.47 428.82 19.9C430.67 20.55 432.71 19.57 433.36 17.72C433.83 16.38 433.75 14.95 433.14 13.67C432.53 12.4 431.45 11.44 430.12 10.97C429.88 10.88 429.75 10.62 429.83 10.37C429.9 10.18 430.08 10.06 430.27 10.06V10.05Z" fill="#036AF5"/>
<path d="M430.28 0C432.14 0 433.88 1.16 434.53 3.01C435.67 6.25 433.96 9.82 430.71 10.96C430.46 11.05 430.2 10.92 430.11 10.67C430.02 10.43 430.15 10.16 430.4 10.07C433.16 9.1 434.61 6.07 433.64 3.32C432.99 1.47 430.95 0.49 429.1 1.14C427.88 1.57 427.23 2.91 427.66 4.14C427.93 4.92 428.8 5.34 429.58 5.06C429.81 4.98 429.99 4.81 430.1 4.6C430.21 4.38 430.22 4.13 430.14 3.9C430.05 3.66 430.18 3.39 430.43 3.3C430.67 3.21 430.94 3.34 431.03 3.59C431.19 4.06 431.17 4.56 430.95 5C430.74 5.45 430.36 5.78 429.9 5.94C428.63 6.39 427.23 5.71 426.79 4.44C426.19 2.73 427.09 0.85 428.8 0.25C429.29 0.08 429.79 0 430.29 0L430.28 0Z" fill="#036AF5"/>
<path d="M437.96 10.52C437.96 12.13 436.65 13.44 435.04 13.44C433.43 13.44 432.12 12.13 432.12 10.52C432.12 8.90998 433.43 7.59998 435.04 7.59998C436.65 7.59998 437.96 8.90998 437.96 10.52Z" fill="#036AF5"/>
<path d="M436.71 10.82L408.51 11.1L187.16 11.26L130.75 11.39L74.34 11.26L46.14 11.1L17.94 10.82C17.77 10.82 17.64 10.68 17.64 10.51C17.64 10.34 17.78 10.21 17.94 10.21L46.14 9.93001L74.34 9.77001L130.75 9.64001L187.16 9.77001L408.51 9.93001L436.71 10.21C436.88 10.21 437.01 10.35 437.01 10.52C437.01 10.69 436.87 10.82 436.71 10.82Z" fill="#036AF5"/>
</g>
<defs>
<clipPath id="clip0_18_6062">
<rect width="454.85" height="21.03" fill="white"/>
</clipPath>
</defs>
</svg>
